<svg xmlns="http://www.w3.org/2000/svg" xmlns:xlink="http://www.w3.org/1999/xlink" width="1920" height="1080" viewBox="0 0 1920 1080">
  <defs>
    <linearGradient id="linear-gradient" x1="0.5" x2="0.5" y2="1" gradientUnits="objectBoundingBox">
      <stop offset="0"/>
      <stop offset="1" stop-color="#5c0082"/>
    </linearGradient>
    <linearGradient id="linear-gradient-2" x1="0.5" x2="0.5" y2="0.781" gradientUnits="objectBoundingBox">
      <stop offset="0" stop-color="#f951ff"/>
      <stop offset="0.64" stop-color="#590d64" stop-opacity="0.514"/>
      <stop offset="1" stop-color="#2b0043" stop-opacity="0"/>
    </linearGradient>
    <clipPath id="clip-Web_1920_1">
      <rect width="1920" height="1080"/>
    </clipPath>
  </defs>
  <g id="Web_1920_1" data-name="Web 1920 – 1" clip-path="url(#clip-Web_1920_1)">
    <rect width="1920" height="1080"/>
    <rect id="Rectangle_1" data-name="Rectangle 1" width="1920" height="501" transform="translate(0 27)" fill="url(#linear-gradient)"/>
    <ellipse id="Ellipse_1" data-name="Ellipse 1" cx="206.5" cy="191.5" rx="206.5" ry="191.5" transform="translate(1100 93)" fill="url(#linear-gradient-2)"/>
    <path id="Tracé_2" data-name="Tracé 2" d="M257,636.429l53.429-15L462.571,711,574,621.429l45,31.714,96.429-55.286,60,55.286,51.429-55.286,55.714-18.245,42.857-48.183,92.143,105L1159,691.714,994,636.429l332.143-144,135,87.183,85.714-20.326,109.286,62.143,50.429-23.571,102.857,79.429,97.429-118,105,132.429,64.286-112.1s20.893-8,70.714,18.245,34.572,38.571,34.572,38.571V747.857H257Z" transform="translate(-260 -208)" fill="#30003e"/>
    <path id="Tracé_1" data-name="Tracé 1" d="M257,636.429l75.143-64.286,55.714,64.286,94.286-92.143L555,621.429,604.286,585,690,636.429,741.429,585l66.429-53.571,38.571,66.429L975,475.714l62.143,55.714,218.571-167.143,162.857,167.143,68.571-55.714,109.286,83.571L1680,501.429l68.571,57.857L1815,501.429,1907.143,585l75-53.571,91.45,48.183,107.836,56.817V747.857H257Z" transform="translate(-257 -133)"/>
    <rect id="Rectangle_2" data-name="Rectangle 2" width="1920" height="11" transform="translate(0 51)" opacity="0.06"/>
    <rect id="Rectangle_2-2" data-name="Rectangle 2" width="1920" height="11" transform="translate(0 68)" opacity="0.06"/>
    <rect id="Rectangle_2-3" data-name="Rectangle 2" width="1920" height="11" transform="translate(0 85)" opacity="0.06"/>
    <rect id="Rectangle_2-4" data-name="Rectangle 2" width="1920" height="11" transform="translate(0 102)" opacity="0.06"/>
    <rect id="Rectangle_2-5" data-name="Rectangle 2" width="1920" height="11" transform="translate(0 119)" opacity="0.06"/>
    <rect id="Rectangle_2-6" data-name="Rectangle 2" width="1920" height="11" transform="translate(0 136)" opacity="0.06"/>
    <rect id="Rectangle_2-7" data-name="Rectangle 2" width="1920" height="11" transform="translate(0 153)" opacity="0.06"/>
    <rect id="Rectangle_2-8" data-name="Rectangle 2" width="1920" height="11" transform="translate(0 170)" opacity="0.06"/>
    <rect id="Rectangle_2-9" data-name="Rectangle 2" width="1920" height="11" transform="translate(0 187)" opacity="0.06"/>
    <rect id="Rectangle_2-10" data-name="Rectangle 2" width="1920" height="11" transform="translate(0 204)" opacity="0.06"/>
    <rect id="Rectangle_2-11" data-name="Rectangle 2" width="1920" height="11" transform="translate(0 221)" opacity="0.06"/>
    <rect id="Rectangle_2-12" data-name="Rectangle 2" width="1920" height="11" transform="translate(0 238)" opacity="0.06"/>
    <rect id="Rectangle_2-13" data-name="Rectangle 2" width="1920" height="11" transform="translate(0 255)" opacity="0.06"/>
    <rect id="Rectangle_2-14" data-name="Rectangle 2" width="1920" height="11" transform="translate(0 272)" opacity="0.06"/>
    <rect id="Rectangle_2-15" data-name="Rectangle 2" width="1920" height="11" transform="translate(0 289)" opacity="0.06"/>
    <rect id="Rectangle_2-16" data-name="Rectangle 2" width="1920" height="11" transform="translate(0 306)" opacity="0.06"/>
    <rect id="Rectangle_2-17" data-name="Rectangle 2" width="1920" height="11" transform="translate(0 323)" opacity="0.06"/>
    <rect id="Rectangle_2-18" data-name="Rectangle 2" width="1920" height="11" transform="translate(0 340)" opacity="0.06"/>
    <rect id="Rectangle_2-19" data-name="Rectangle 2" width="1920" height="11" transform="translate(0 357)" opacity="0.06"/>
    <rect id="Rectangle_2-20" data-name="Rectangle 2" width="1920" height="11" transform="translate(0 374)" opacity="0.06"/>
    <rect id="Rectangle_2-21" data-name="Rectangle 2" width="1920" height="11" transform="translate(0 391)" opacity="0.06"/>
    <rect id="Rectangle_2-22" data-name="Rectangle 2" width="1920" height="11" transform="translate(0 408)" opacity="0.06"/>
    <rect id="Rectangle_2-23" data-name="Rectangle 2" width="1920" height="11" transform="translate(0 425)" opacity="0.06"/>
    <rect id="Rectangle_2-24" data-name="Rectangle 2" width="1920" height="11" transform="translate(0 442)" opacity="0.06"/>
    <rect id="Rectangle_2-25" data-name="Rectangle 2" width="1920" height="11" transform="translate(0 459)" opacity="0.06"/>
    <rect id="Rectangle_2-26" data-name="Rectangle 2" width="1920" height="11" transform="translate(0 476)" opacity="0.06"/>
    <rect id="Rectangle_2-27" data-name="Rectangle 2" width="1920" height="11" transform="translate(0 493)" opacity="0.06"/>
    <rect id="Rectangle_2-28" data-name="Rectangle 2" width="1920" height="11" transform="translate(0 510)" opacity="0.06"/>
    <rect id="Rectangle_2-29" data-name="Rectangle 2" width="1920" height="11" transform="translate(0 527)" opacity="0.17"/>
    <rect id="Rectangle_2-30" data-name="Rectangle 2" width="1920" height="11" transform="translate(0 544)" opacity="0.17"/>
    <rect id="Rectangle_2-31" data-name="Rectangle 2" width="1920" height="11" transform="translate(0 561)" opacity="0.17"/>
    <rect id="Rectangle_2-32" data-name="Rectangle 2" width="1920" height="11" transform="translate(0 578)" opacity="0.17"/>
    <rect id="Rectangle_2-33" data-name="Rectangle 2" width="1920" height="11" transform="translate(0 595)" opacity="0.17"/>
    <rect id="Rectangle_2-34" data-name="Rectangle 2" width="1920" height="11" transform="translate(0 612)" opacity="0.17"/>
    <rect id="Rectangle_2-35" data-name="Rectangle 2" width="1920" height="11" transform="translate(0 629)" opacity="0.17"/>
    <rect id="Rectangle_2-36" data-name="Rectangle 2" width="1920" height="11" transform="translate(0 646)" opacity="0.17"/>
    <rect id="Rectangle_2-37" data-name="Rectangle 2" width="1920" height="11" transform="translate(0 663)" opacity="0.17"/>
    <rect id="Rectangle_2-38" data-name="Rectangle 2" width="1920" height="11" transform="translate(0 680)" opacity="0.17"/>
    <rect id="Rectangle_2-39" data-name="Rectangle 2" width="1920" height="11" transform="translate(0 697)" opacity="0.17"/>
    <rect id="Rectangle_2-40" data-name="Rectangle 2" width="1920" height="11" transform="translate(0 714)" opacity="0.17"/>
  </g>
</svg>
